HIERARCHY
ROOT Hips
{
	OFFSET 0.00 0.00 0.00
	CHANNELS 6 Xposition Yposition Zposition Yrotation Xrotation Zrotation
	JOINT Spine
	{
		OFFSET	0.0000	9.2263	1.5771
		CHANNELS 3 Xrotation Yrotation Zrotation
		JOINT Spine1
		{
			OFFSET	0.0000	16.2540	-0.1656
			CHANNELS 3 Xrotation Yrotation Zrotation
			JOINT Spine2
			{
				OFFSET	0.0000	13.6396	-1.2923
				CHANNELS 3 Xrotation Yrotation Zrotation
				JOINT Neck
				{
					OFFSET	0.0000	13.8774	-4.3542
					CHANNELS 3 Xrotation Yrotation Zrotation
					JOINT Neck1
					{
						OFFSET	0.0000	4.3400	0.9269
						CHANNELS 3 Xrotation Yrotation Zrotation
						JOINT Head
						{
							OFFSET	0.0000	4.0266	0.8585
							CHANNELS 3 Xrotation Yrotation Zrotation
							End Site
							{
								OFFSET 0.0000 23.0297 0.1231
							}
						}
					}
				}
				JOINT LeftShoulder
				{
					OFFSET	6.1442	10.1870	-3.7932
					CHANNELS 3 Zrotation Xrotation Yrotation
					JOINT LeftArm
					{
						OFFSET	12.3191	-1.1130	-1.7935
						CHANNELS 3 Zrotation Xrotation Yrotation
						JOINT LeftForeArm
						{
							OFFSET	27.6870	0.0000	0.0000
							CHANNELS 3 Xrotation Zrotation Yrotation
							JOINT LeftHand
							{
								OFFSET	27.8738	0.0000	0.0000
								CHANNELS 3 Zrotation Yrotation Xrotation
								JOINT LeftHandThumb1
								{
									OFFSET	2.3785	-1.0029	2.6209
									CHANNELS 3 Zrotation Xrotation Yrotation
									JOINT LeftHandThumb2
									{
										OFFSET	3.3624	-1.0029	2.8398
										CHANNELS 3 Zrotation Xrotation Yrotation
										JOINT LeftHandThumb3
										{
											OFFSET	4.5018	-1.3445	2.1783
											CHANNELS 3 Zrotation Xrotation Yrotation
											End Site
											{
												OFFSET 2.6000 -1.0000 1.0000
											}
										}
									}
								}
								JOINT LeftHandMiddle1
								{
									OFFSET	10.4639	0.6148	0.4298
									CHANNELS 3 Zrotation Xrotation Yrotation
									JOINT LeftHandMiddle2
									{
										OFFSET	5.7921	0.0000	0.0000
										CHANNELS 3 Zrotation Xrotation Yrotation
										JOINT LeftHandMiddle3
										{
											OFFSET	3.7132	0.0000	0.0000
											CHANNELS 3 Zrotation Xrotation Yrotation
											End Site
											{
												OFFSET 2.3000 0.0000 0.0000
											}
										}
									}
								}
								JOINT LeftHandIndex1
								{
									OFFSET	10.3945	0.6148	2.7055
									CHANNELS 3 Zrotation Xrotation Yrotation
									JOINT LeftHandIndex2
									{
										OFFSET	5.5493	0.0000	0.0000
										CHANNELS 3 Zrotation Xrotation Yrotation
										JOINT LeftHandIndex3
										{
											OFFSET	3.3911	0.0000	0.0000
											CHANNELS 3 Zrotation Xrotation Yrotation
											End Site
											{
												OFFSET 2.5000 0.0000 0.0000
											}
										}
									}
								}
								JOINT LeftHandRing1
								{
									OFFSET	10.3252	0.3211	-1.8755
									CHANNELS 3 Zrotation Xrotation Yrotation
									JOINT LeftHandRing2
									{
										OFFSET	5.4452	0.0000	0.0000
										CHANNELS 3 Zrotation Xrotation Yrotation
										JOINT LeftHandRing3
										{
											OFFSET	3.7132	0.0000	0.0000
											CHANNELS 3 Zrotation Xrotation Yrotation
											End Site
											{
												OFFSET 2.0000 0.0000 0.0000
											}
										}
									}
								}
								JOINT LeftHandPinky1
								{
									OFFSET	10.0130	-0.0783	-3.9671
									CHANNELS 3 Zrotation Xrotation Yrotation
									JOINT LeftHandPinky2
									{
										OFFSET	3.6763	0.0000	0.0000
										CHANNELS 3 Zrotation Xrotation Yrotation
										JOINT LeftHandPinky3
										{
											OFFSET	2.8113	0.0000	0.0000
											CHANNELS 3 Zrotation Xrotation Yrotation
											End Site
											{
												OFFSET 2.9000 0.0000 0.0000
											}
										}
									}
								}
							}
						}
					}
				}
				JOINT RightShoulder
				{
					OFFSET	-6.1402	10.1870	-3.7932
					CHANNELS 3 Zrotation Xrotation Yrotation
					JOINT RightArm
					{
						OFFSET	-12.3231	-1.1130	-1.7935
						CHANNELS 3 Zrotation Xrotation Yrotation
						JOINT RightForeArm
						{
							OFFSET	-27.6870	0.0000	0.0000
							CHANNELS 3 Xrotation Zrotation Yrotation
							JOINT RightHand
							{
								OFFSET	-27.8738	0.0000	0.0000
								CHANNELS 3 Zrotation Yrotation Xrotation
								JOINT RightHandThumb1
								{
									OFFSET	-2.5178	-0.9367	2.5137
									CHANNELS 3 Zrotation Xrotation Yrotation
									JOINT RightHandThumb2
									{
										OFFSET	-3.2638	-1.0870	2.9669
										CHANNELS 3 Zrotation Xrotation Yrotation
										JOINT RightHandThumb3
										{
											OFFSET	-4.4165	-1.3703	2.1350
											CHANNELS 3 Zrotation Xrotation Yrotation
											End Site
											{
												OFFSET -2.6000 -1.0000 1.0000
											}
										}
									}
								}
								JOINT RightHandIndex1
								{
									OFFSET	-10.4665	0.4896	2.7120
									CHANNELS 3 Zrotation Xrotation Yrotation
									JOINT RightHandIndex2
									{
										OFFSET	-5.3768	0.0000	0.0000
										CHANNELS 3 Zrotation Xrotation Yrotation
										JOINT RightHandIndex3
										{
											OFFSET	-3.3855	0.0000	0.0000
											CHANNELS 3 Zrotation Xrotation Yrotation
											End Site
											{
												OFFSET -2.6000 0.0000 0.0000
											}
										}
									}
								}
								JOINT RightHandMiddle1
								{
									OFFSET	-10.7596	0.4896	0.4278
									CHANNELS 3 Zrotation Xrotation Yrotation
									JOINT RightHandMiddle2
									{
										OFFSET	-5.6168	0.0000	0.0000
										CHANNELS 3 Zrotation Xrotation Yrotation
										JOINT RightHandMiddle3
										{
											OFFSET	-3.7364	0.0000	0.0000
											CHANNELS 3 Zrotation Xrotation Yrotation
											End Site
											{
												OFFSET -2.3000 0.0000 0.0000
											}
										}
									}
								}
								JOINT RightHandRing1
								{
									OFFSET	-10.4702	0.3879	-1.9363
									CHANNELS 3 Zrotation Xrotation Yrotation
									JOINT RightHandRing2
									{
										OFFSET	-5.4013	0.0000	0.0000
										CHANNELS 3 Zrotation Xrotation Yrotation
										JOINT RightHandRing3
										{
											OFFSET	-3.3916	0.0000	0.0000
											CHANNELS 3 Zrotation Xrotation Yrotation
											End Site
											{
												OFFSET -2.2000 0.0000 0.0000
											}
										}
									}
								}
								JOINT RightHandPinky1
								{
									OFFSET	-9.9715	-0.1191	-3.9540
									CHANNELS 3 Zrotation Xrotation Yrotation
									JOINT RightHandPinky2
									{
										OFFSET	-3.6528	0.0000	0.0000
										CHANNELS 3 Zrotation Xrotation Yrotation
										JOINT RightHandPinky3
										{
											OFFSET	-2.7820	0.0000	0.0000
											CHANNELS 3 Zrotation Xrotation Yrotation
											End Site
											{
												OFFSET -2.9000 0.0000 0.0000
											}
										}
									}
								}
							}
						}
					}
				}
			}
		}
	}
	JOINT LeftUpLeg
	{
		OFFSET	9.6338	-3.2733	0.0000
		CHANNELS 3 Xrotation Yrotation Zrotation
		JOINT LeftLeg
		{
			OFFSET	0.0000	-41.7300	-1.7300
			CHANNELS 3 Xrotation Yrotation Zrotation
			JOINT LeftFoot
			{
				OFFSET	0.0126	-39.1900	-0.8477
				CHANNELS 3 Xrotation Yrotation Zrotation
				JOINT LeftToeBase
				{
					OFFSET	-0.1833	-12.1931	8.2823
					CHANNELS 3 Xrotation Yrotation Zrotation
					End Site
					{
						OFFSET 0.0000 0.0000 10.1681
					}
				}
			}
		}
	}
	JOINT RightUpLeg
	{
		OFFSET	-9.6338	-3.2733	0.0000
		CHANNELS 3 Xrotation Yrotation Zrotation
		JOINT RightLeg
		{
			OFFSET	0.0000	-41.7300	-1.7300
			CHANNELS 3 Xrotation Yrotation Zrotation
			JOINT RightFoot
			{
				OFFSET	0.0126	-39.1900	-0.8477
				CHANNELS 3 Xrotation Yrotation Zrotation
				JOINT RightToeBase
				{
					OFFSET	-0.1833	-12.1931	8.2823
					CHANNELS 3 Xrotation Yrotation Zrotation
					End Site
					{
						OFFSET 0.0032 0.0000 10.1681
					}
				}
			}
		}
	}
}
MOTION
Frames: 4
Frame Time: 0.0333333
-1.5334 82.5258 1.5174 -25.4134 -19.4070 1.3949 15.6055 -0.5390 10.2876 8.8994 -0.4625 5.3101 8.9170 -0.3278 5.2788 7.8907 4.6048 -2.2384 -0.0000 0.0000 -0.0000 -25.2845 23.7990 1.3441 -5.3789 4.7753 -22.8336 -77.9941 -57.2007 -9.3865 -0.0000 -0.0000 -107.8250 -0.5955 2.8766 -74.1697 -22.7449 -1.2694 -0.9859 -0.2915 -1.3338 -5.0195 -0.0073 1.1288 19.1772 -65.5518 1.5160 0.0057 -52.5904 -0.3985 0.8064 -10.5354 -0.0171 0.1856 -57.2831 1.4955 1.1065 -63.4339 -0.5612 0.9080 -5.6434 -0.0049 0.0999 -51.2198 1.4471 0.8796 -45.7867 -0.3073 0.7277 -7.7574 -0.0093 0.1370 -52.1229 1.4591 3.5365 -31.9569 2.0083 -2.9302 -10.4067 -0.0167 0.1834 -1.6689 -0.0487 -4.2007 31.2057 35.5020 29.2932 -0.0000 0.0000 125.5030 -17.9689 -32.1158 29.4717 17.8342 0.7928 -21.5403 2.7479 1.2994 -4.9862 -5.3675 -4.2121 4.5571 44.3913 0.9042 2.5789 35.7273 -0.4300 -1.3340 -0.0000 0.0000 -0.0000 25.7196 0.7679 -3.7536 42.4308 -0.5984 -1.5414 0.7780 -0.0002 -0.0310 22.5166 0.7322 -8.0891 34.6613 -0.4055 -1.2993 9.3410 -0.0303 -0.3708 8.6146 0.3558 -2.8587 37.4939 -0.4720 -1.3906 -0.0000 -0.0000 -0.0000 -23.4771 8.4576 22.6160 33.4584 -3.0560 9.2928 -7.0932 1.7107 -22.3828 -6.7425 0.0000 -0.0000 -12.0666 -10.1730 -11.2062 68.1918 -3.6337 -2.9911 -37.1646 -2.4300 7.6334 -2.0192 -0.0000 0.0000 
-1.3101 82.6671 1.9599 -25.8490 -19.4143 1.3393 15.5691 -0.5625 10.4956 8.8811 -0.4835 5.4252 8.8997 -0.3484 5.3933 7.9307 4.7526 -1.9610 -0.0000 0.0000 -0.0000 -24.7795 24.5753 1.6419 -5.3918 4.7129 -22.5354 -78.2605 -57.1750 -8.7745 -0.0000 -0.0000 -107.7887 -0.5544 2.5882 -74.1168 -23.1324 -1.3033 -1.0624 -0.2915 -1.3338 -5.0195 -0.0816 1.1867 19.4303 -65.3317 1.5161 -0.0238 -52.8571 -0.4023 0.8093 -10.5754 -0.0172 0.1863 -57.1702 1.4948 0.9753 -63.2441 -0.5582 0.9066 -5.5764 -0.0048 0.0986 -51.1009 1.4458 0.8354 -45.7892 -0.3073 0.7277 -7.7683 -0.0093 0.1372 -52.1041 1.4589 3.5357 -31.8607 2.0033 -2.9353 -10.3650 -0.0166 0.1826 -1.5244 -0.0442 -4.1257 31.0923 35.3244 29.1558 0.0000 0.0000 125.5356 -17.4474 -32.2044 29.2508 17.8264 0.7854 -21.5265 2.7174 1.2423 -4.6951 -5.3361 -4.0801 4.0928 42.0440 0.9053 2.9583 33.5631 -0.3809 -1.2630 0.0000 0.0000 0.0000 26.5426 0.7794 -3.2587 42.2957 -0.5948 -1.5374 0.2421 -0.0000 -0.0096 23.0733 0.7394 -7.5602 34.3022 -0.3973 -1.2875 9.1862 -0.0293 -0.3647 8.2784 0.3444 -2.5890 37.3018 -0.4673 -1.3845 0.0000 0.0000 -0.0000 -23.3848 8.6566 22.7316 33.8639 -2.8260 9.2993 -7.0258 1.7073 -22.2225 -7.0737 0.0000 -0.0000 -11.7070 -10.0321 -11.3536 67.7112 -3.2236 -3.0361 -36.9971 -2.4667 7.7537 -1.9953 0.0000 -0.0000 
-1.0617 83.0881 2.4323 -26.2385 -18.8937 1.2674 15.1896 -0.5855 10.5355 8.6920 -0.4863 5.4632 8.7104 -0.3512 5.4327 7.9540 4.8446 -1.6663 -0.0000 0.0000 -0.0000 -24.4481 25.0199 2.0179 -5.4012 4.6633 -22.2979 -77.7216 -57.1556 -7.5971 0.0000 -0.0000 -107.8320 -0.6341 2.5037 -73.8198 -23.4713 -1.3678 -1.1980 -0.2915 -1.3338 -5.0195 -0.1380 1.2307 19.6225 -65.1936 1.5162 -0.0597 -53.0743 -0.4053 0.8116 -10.6226 -0.0174 0.1872 -57.1672 1.4947 0.8360 -62.9770 -0.5540 0.9044 -5.5982 -0.0048 0.0990 -51.0158 1.4449 0.7955 -45.8212 -0.3077 0.7281 -7.7908 -0.0094 0.1376 -52.0237 1.4581 3.5322 -31.8128 2.0009 -2.9379 -10.3725 -0.0166 0.1828 -1.2893 -0.0367 -4.0066 30.6499 35.3074 29.1030 -0.0000 0.0000 125.5829 -16.9402 -32.4724 28.5395 17.6082 0.7541 -21.4671 2.6431 1.1038 -3.9901 -5.2923 -3.8966 3.4485 41.4193 0.9043 2.8124 32.2406 -0.3522 -1.2187 0.0000 0.0000 -0.0000 27.6131 0.7945 -2.8666 41.4736 -0.5729 -1.5131 -0.0364 0.0000 0.0015 23.5320 0.7445 -6.9923 32.9861 -0.3683 -1.2438 8.7617 -0.0265 -0.3480 7.7935 0.3282 -2.3179 36.4554 -0.4471 -1.3575 -0.0000 -0.0000 0.0000 -23.2457 8.7512 22.5954 33.6847 -2.1960 9.2490 -7.8296 1.8496 -22.0810 -7.0745 0.0000 -0.0000 -11.5318 -9.8164 -11.3531 66.5042 -3.0101 -3.0739 -36.4090 -2.5166 7.9886 -1.8228 -0.0000 -0.0000 
-0.7604 83.7577 2.9273 -26.6290 -18.0052 1.2385 14.5652 -0.6258 10.5061 8.3764 -0.4876 5.4678 8.3942 -0.3520 5.4398 7.9486 4.9171 -1.4191 -0.0000 0.0000 -0.0000 -24.3630 25.2364 2.5715 -5.3760 4.6075 -22.1364 -76.7327 -57.0849 -6.1646 -0.0000 -0.0000 -107.9733 -0.7882 2.6137 -73.3059 -23.7237 -1.4518 -1.3696 -0.2915 -1.3338 -5.0195 -0.1732 1.2582 19.7422 -65.1620 1.5162 -0.0931 -53.2216 -0.4074 0.8132 -10.6882 -0.0176 0.1883 -57.3006 1.4955 0.7393 -62.8606 -0.5521 0.9035 -5.6192 -0.0049 0.0994 -50.9694 1.4445 0.7801 -45.8187 -0.3077 0.7281 -7.8199 -0.0094 0.1381 -51.8608 1.4565 3.5252 -31.7912 1.9997 -2.9390 -10.4031 -0.0167 0.1833 -1.0644 -0.0295 -3.8968 29.7494 35.4147 29.3477 0.0000 0.0000 125.6340 -16.6478 -32.9536 27.5631 17.1994 0.6930 -21.3515 2.5590 0.9479 -3.1972 -5.2540 -3.7371 2.8899 42.7320 0.9046 2.2889 31.6900 -0.3406 -1.2001 0.0000 0.0000 0.0000 28.7579 0.8100 -2.6757 39.7673 -0.5286 -1.4614 0.0005 0.0000 -0.0000 23.8483 0.7475 -6.4939 31.0394 -0.3271 -1.1779 8.0926 -0.0225 -0.3216 7.5033 0.3181 -2.0227 35.2347 -0.4186 -1.3180 0.0000 -0.0000 0.0000 -22.9407 8.8844 22.1796 32.8841 -1.2698 9.1951 -9.2976 2.0994 -21.9384 -6.6714 0.0000 0.0000 -11.4336 -9.5052 -11.3010 64.6304 -2.8403 -3.1228 -35.4333 -2.5577 8.2818 -1.6053 0.0000 0.0000 
